<svg
    xmlns="http://www.w3.org/2000/svg"
    viewBox="0 0 24 24">
    <defs>
        <svg
            id="check-circle"
            x="0"
            y="0"
            viewBox="0 0 24 24">
            <path
                fill="none"
                stroke="currentColor"
                stroke-width="2"
                stroke-linecap="round"
                stroke-linejoin="round"
                d="M21.801 10A10 10 0 1 1 17 3.335"/>
            <path
                fill="none"
                stroke="currentColor"
                stroke-width="2"
                stroke-linecap="round"
                stroke-linejoin="round"
                d="m9 11 3 3L22 4"/>
        </svg>
        <svg
            id="x-circle"
            x="0"
            y="0"
            viewBox="0 0 24 24">
            <circle
                cx="12"
                cy="12"
                r="10"
                fill="none"
                stroke="currentColor"
                stroke-width="2"
                stroke-linecap="round"
                stroke-linejoin="round"/>
            <path
                fill="none"
                stroke="currentColor"
                stroke-width="2"
                stroke-linecap="round"
                stroke-linejoin="round"
                d="m15 9-6 6"/>
            <path
                fill="none"
                stroke="currentColor"
                stroke-width="2"
                stroke-linecap="round"
                stroke-linejoin="round"
                d="m9 9 6 6"/>
        </svg>
        <svg
            id="triangle-alert"
            x="0"
            y="0"
            viewBox="0 0 24 24">
            <path
                fill="none"
                stroke="currentColor"
                stroke-width="2"
                stroke-linecap="round"
                stroke-linejoin="round"
                d="m21.73 18-8-14a2 2 0 0 0-3.48 0l-8 14A2 2 0 0 0 4 21h16a2 2 0 0 0 1.73-3"/>
            <path
                fill="none"
                stroke="currentColor"
                stroke-width="2"
                stroke-linecap="round"
                stroke-linejoin="round"
                d="M12 9v4"/>
            <path
                fill="none"
                stroke="currentColor"
                stroke-width="2"
                stroke-linecap="round"
                stroke-linejoin="round"
                d="M12 17h.01"/>
        </svg>
    </defs>
</svg>
