<?xml version="1.0" encoding="utf-8"?>
<!-- Generator: Adobe Illustrator 22.0.1, SVG Export Plug-In . SVG Version: 6.00 Build 0)  -->
<svg version="1.1" id="Camada_1" xmlns="http://www.w3.org/2000/svg" xmlns:xlink="http://www.w3.org/1999/xlink" x="0px" y="0px"
	 viewBox="0 0 467.7 155.9" style="enable-background:new 0 0 467.7 155.9;" xml:space="preserve">
<style type="text/css">
	.st0{fill:#FFFFFF;}
</style>
<g>
	<g>
		<path class="st0" d="M338.9,44.4c-17.6,0-31.9,14.3-31.9,31.9s14.3,31.9,31.9,31.9s31.9-14.3,31.9-31.9S356.5,44.4,338.9,44.4z
			 M338.9,99.4c-12.7,0-23.1-10.3-23.1-23.1s10.3-23.1,23.1-23.1c12.7,0,23.1,10.3,23.1,23.1S351.7,99.4,338.9,99.4z"/>
	</g>
	<path class="st0" d="M145.7,60.2c3.3,3.3,5.4,7.4,6.3,11.7h-45c0.9-4.3,2.9-8.3,6.3-11.7C122.2,51.3,136.7,51.3,145.7,60.2
		 M158.3,90.1h-10.5c-0.7,0.9-1.4,1.7-2.2,2.5c-9,9-23.5,9-32.4,0c-3.3-3.3-5.4-7.4-6.3-11.7H161c1.4-9.6-1.6-19.7-9-27.1
		c-12.5-12.5-32.7-12.5-45.2,0s-12.5,32.7,0,45.2s32.7,12.5,45.2,0C154.7,96.4,156.8,93.3,158.3,90.1"/>
	<path class="st0" d="M271.1,60.2c3.3,3.3,5.4,7.4,6.3,11.7h-45c0.9-4.3,2.9-8.3,6.3-11.7C247.6,51.3,262.2,51.3,271.1,60.2
		 M283.8,90.1h-10.5c-0.7,0.9-1.4,1.7-2.2,2.5c-9,9-23.5,9-32.4,0c-3.3-3.3-5.4-7.4-6.3-11.7h54.1c1.4-9.6-1.6-19.7-9-27.1
		c-12.5-12.5-32.7-12.5-45.2,0s-12.5,32.7,0,45.2s32.7,12.5,45.2,0C280.2,96.4,282.3,93.3,283.8,90.1"/>
	<path class="st0" d="M88.3,20.6h-8.5v34.1C74,48.4,65.7,44.4,56.5,44.4c-17.6,0-31.9,14.3-31.9,31.9s14.3,31.9,31.9,31.9
		S88.3,94,88.3,76.3C88.3,75.6,88.3,20.6,88.3,20.6z M56.5,99.4c-12.7,0-23.1-10.3-23.1-23.1c0-12.7,10.3-23.1,23.1-23.1
		c12.7,0,23.1,10.3,23.1,23.1C79.5,89.1,69.2,99.4,56.5,99.4z"/>
	<rect x="292.8" y="20.6" class="st0" width="8.4" height="87.8"/>
	<path class="st0" d="M411.2,44.6c-17.6,0-31.9,14.3-31.9,31.9c0,0.7,0,55.7,0,55.7h8.5v-34c5.8,6.3,14.1,10.2,23.4,10.2
		c17.6,0,31.9-14.3,31.9-31.9S428.9,44.6,411.2,44.6z M411.2,99.6c-12.7,0-23.1-10.3-23.1-23.1c0-12.7,10.3-23.1,23.1-23.1
		c12.7,0,23.1,10.3,23.1,23.1C434.3,89.3,424,99.6,411.2,99.6z"/>
	<g>
		<polygon class="st0" points="192.2,92.5 171.3,44.5 160.7,44.5 188.2,107.5 196.2,107.5 223.6,44.5 213.1,44.5 		"/>
	</g>
	<g>
		<g>
			<path class="st0" d="M35.7,123.2v-1h5.7v1h-2.3v9.4H38v-9.4C38,123.2,35.7,123.2,35.7,123.2z"/>
			<path class="st0" d="M48,122.1h6v1h-4.9v3.3H54v1h-4.9v4.1H54v1h-6V122.1z"/>
			<path class="st0" d="M70.7,124.1l-0.8,0.6c-0.5-0.6-1-1-1.6-1.3s-1.3-0.5-2.1-0.5c-0.8,0-1.6,0.2-2.3,0.6s-1.3,0.9-1.7,1.6
				s-0.6,1.4-0.6,2.3c0,1.3,0.4,2.3,1.3,3.2s2,1.3,3.3,1.3c1.5,0,2.7-0.6,3.7-1.7l0.8,0.6c-0.5,0.7-1.2,1.2-2,1.5
				c-0.8,0.4-1.7,0.5-2.6,0.5c-1.8,0-3.3-0.6-4.3-1.8c-0.9-1-1.3-2.3-1.3-3.7c0-1.5,0.5-2.8,1.6-3.9c1.1-1,2.4-1.6,4-1.6
				c1,0,1.9,0.2,2.6,0.6C69.5,122.8,70.1,123.4,70.7,124.1z"/>
			<path class="st0" d="M77.9,132.6v-10.5h0.2l7,8v-8h1v10.5h-0.2l-6.9-7.9v7.9H77.9z"/>
			<path class="st0" d="M98.7,121.9c1.6,0,2.9,0.5,4,1.6s1.6,2.4,1.6,3.9c0,1.5-0.5,2.8-1.6,3.9s-2.4,1.6-3.9,1.6
				c-1.6,0-2.9-0.5-3.9-1.6c-1.1-1.1-1.6-2.3-1.6-3.9c0-1,0.2-1.9,0.7-2.8s1.1-1.5,2-2C96.8,122.1,97.7,121.9,98.7,121.9z
				 M98.7,122.9c-0.8,0-1.5,0.2-2.2,0.6s-1.2,0.9-1.6,1.6s-0.6,1.4-0.6,2.3c0,1.2,0.4,2.3,1.3,3.1c0.9,0.9,1.9,1.3,3.1,1.3
				c0.8,0,1.6-0.2,2.3-0.6c0.7-0.4,1.2-0.9,1.6-1.6c0.4-0.7,0.6-1.4,0.6-2.3c0-0.8-0.2-1.6-0.6-2.3c-0.4-0.7-0.9-1.2-1.6-1.6
				S99.5,122.9,98.7,122.9z"/>
			<path class="st0" d="M111.5,122.1h1v9.4h4v1h-5.1L111.5,122.1L111.5,122.1z"/>
			<path class="st0" d="M128.3,121.9c1.6,0,2.9,0.5,4,1.6s1.6,2.4,1.6,3.9c0,1.5-0.5,2.8-1.6,3.9s-2.4,1.6-3.9,1.6
				c-1.6,0-2.9-0.5-3.9-1.6c-1.1-1.1-1.6-2.3-1.6-3.9c0-1,0.2-1.9,0.7-2.8s1.1-1.5,2-2C126.4,122.1,127.3,121.9,128.3,121.9z
				 M128.3,122.9c-0.8,0-1.5,0.2-2.2,0.6s-1.2,0.9-1.6,1.6s-0.6,1.4-0.6,2.3c0,1.2,0.4,2.3,1.3,3.1c0.9,0.9,1.9,1.3,3.1,1.3
				c0.8,0,1.6-0.2,2.3-0.6c0.7-0.4,1.2-0.9,1.6-1.6c0.4-0.7,0.6-1.4,0.6-2.3c0-0.8-0.2-1.6-0.6-2.3c-0.4-0.7-0.9-1.2-1.6-1.6
				S129.1,122.9,128.3,122.9z"/>
			<path class="st0" d="M151.1,123.9l-0.8,0.8c-0.6-0.6-1.2-1-1.9-1.3s-1.4-0.4-2-0.4c-0.8,0-1.6,0.2-2.3,0.6s-1.3,0.9-1.7,1.6
				s-0.6,1.4-0.6,2.2c0,0.8,0.2,1.5,0.6,2.2c0.4,0.7,1,1.3,1.7,1.7s1.6,0.6,2.4,0.6c1.1,0,2-0.3,2.7-0.9c0.7-0.6,1.2-1.4,1.3-2.4
				h-3.3v-1h4.5c0,1.6-0.5,2.9-1.4,3.8c-1,1-2.2,1.4-3.8,1.4c-1.9,0-3.5-0.7-4.6-2c-0.9-1-1.3-2.2-1.3-3.5c0-1,0.2-1.9,0.7-2.8
				s1.2-1.5,2-2s1.8-0.7,2.9-0.7c0.9,0,1.7,0.2,2.5,0.5C149.6,122.7,150.4,123.2,151.1,123.9z"/>
			<path class="st0" d="M158.7,122.1h1v10.5h-1V122.1z"/>
			<path class="st0" d="M171.5,122.1l4.9,10.5h-1.1l-1.6-3.4h-4.5l-1.6,3.4h-1.2l4.9-10.5C171.3,122.1,171.5,122.1,171.5,122.1z
				 M171.4,124.4l-1.8,3.8h3.6L171.4,124.4z"/>
			<path class="st0" d="M192.2,122.1h6v1h-4.9v3.3h4.9v1h-4.9v4.1h4.9v1h-6V122.1z"/>
			<path class="st0" d="M214.1,122.1h1v10.5h-1V122.1z"/>
			<path class="st0" d="M222.6,132.6v-10.5h0.2l7,8v-8h1v10.5h-0.2l-6.9-7.9v7.9H222.6z"/>
			<path class="st0" d="M238.5,122.1h5.2v1h-4.2v3.3h4.2v1h-4.2v5.1h-1V122.1z"/>
			<path class="st0" d="M255.6,121.9c1.6,0,2.9,0.5,4,1.6s1.6,2.4,1.6,3.9c0,1.5-0.5,2.8-1.6,3.9s-2.4,1.6-3.9,1.6
				c-1.6,0-2.9-0.5-3.9-1.6c-1.1-1.1-1.6-2.3-1.6-3.9c0-1,0.2-1.9,0.7-2.8s1.1-1.5,2-2S254.7,121.9,255.6,121.9z M255.7,122.9
				c-0.8,0-1.5,0.2-2.2,0.6s-1.2,0.9-1.6,1.6c-0.4,0.7-0.6,1.4-0.6,2.3c0,1.2,0.4,2.3,1.3,3.1c0.9,0.9,1.9,1.3,3.1,1.3
				c0.8,0,1.6-0.2,2.3-0.6c0.7-0.4,1.2-0.9,1.6-1.6c0.4-0.7,0.6-1.4,0.6-2.3c0-0.8-0.2-1.6-0.6-2.3c-0.4-0.7-0.9-1.2-1.6-1.6
				C257.2,123.1,256.5,122.9,255.7,122.9z"/>
			<path class="st0" d="M268.5,122.1h2.1c1.2,0,1.9,0,2.4,0.1c0.6,0.1,1.1,0.4,1.5,0.9s0.6,1,0.6,1.7c0,0.6-0.1,1.1-0.4,1.5
				s-0.7,0.8-1.1,1c-0.5,0.2-1.2,0.3-2.1,0.3l3.8,4.9H274l-3.8-4.9h-0.6v4.9h-1v-10.4H268.5z M269.5,123.2v3.6h1.8
				c0.7,0,1.2-0.1,1.5-0.2s0.6-0.3,0.8-0.6s0.3-0.6,0.3-1s-0.1-0.7-0.3-1c-0.2-0.3-0.4-0.5-0.7-0.6c-0.3-0.1-0.8-0.2-1.5-0.2
				C271.4,123.2,269.5,123.2,269.5,123.2z"/>
			<path class="st0" d="M281.9,132.6l1.5-10.5h0.2l4.3,8.6l4.2-8.6h0.2l1.5,10.5h-1l-1-7.5l-3.7,7.5h-0.3l-3.7-7.5l-1,7.5H281.9z"/>
			<path class="st0" d="M305.1,122.1l4.9,10.5h-1.1l-1.6-3.4h-4.5l-1.6,3.4H300l4.9-10.5C304.9,122.1,305.1,122.1,305.1,122.1z
				 M305,124.4l-1.8,3.8h3.6L305,124.4z"/>
			<path class="st0" d="M326.4,124.1l-0.8,0.6c-0.5-0.6-1-1-1.6-1.3s-1.3-0.5-2.1-0.5c-0.8,0-1.6,0.2-2.3,0.6s-1.3,0.9-1.7,1.6
				c-0.4,0.7-0.6,1.4-0.6,2.3c0,1.3,0.4,2.3,1.3,3.2s2,1.3,3.3,1.3c1.5,0,2.7-0.6,3.7-1.7l0.8,0.6c-0.5,0.7-1.2,1.2-2,1.5
				c-0.8,0.4-1.7,0.5-2.6,0.5c-1.8,0-3.3-0.6-4.3-1.8c-0.9-1-1.3-2.3-1.3-3.7c0-1.5,0.5-2.8,1.6-3.9c1.1-1,2.4-1.6,4-1.6
				c1,0,1.9,0.2,2.6,0.6S325.9,123.4,326.4,124.1z M321.2,132.6h0.6l-0.1,0.8c0.1,0,0.2,0,0.3,0c0.2,0,0.4,0.1,0.6,0.2
				s0.2,0.3,0.2,0.5c0,0.3-0.1,0.6-0.4,0.8s-0.7,0.3-1.2,0.3c-0.4,0-0.8-0.1-1.2-0.2l0.2-0.5c0.3,0.1,0.6,0.1,0.9,0.1
				c0.4,0,0.6,0,0.7-0.1s0.2-0.2,0.2-0.3s0-0.2-0.1-0.2c-0.1-0.1-0.2-0.1-0.3-0.1c-0.1,0-0.3,0-0.5,0.1L321.2,132.6z"/>
			<path class="st0" d="M337.9,122.1l4.9,10.5h-1.1l-1.6-3.4h-4.5l-1.6,3.4h-1.2l4.9-10.5C337.7,122.1,337.9,122.1,337.9,122.1z
				 M339.9,119.9l0.5,0.7c-0.3,0.2-0.6,0.4-0.9,0.5c-0.2,0.1-0.5,0.1-0.7,0.1c-0.3,0-0.7-0.1-1.1-0.3c-0.3-0.2-0.5-0.2-0.6-0.3
				c-0.1,0-0.2,0-0.4,0c-0.2,0-0.3,0-0.5,0.1c-0.1,0.1-0.4,0.2-0.7,0.4l-0.5-0.7c0.4-0.5,1-0.7,1.6-0.7c0.3,0,0.7,0.1,1.1,0.3
				c0.4,0.2,0.7,0.3,1,0.3C339,120.3,339.4,120.1,339.9,119.9z M337.8,124.4l-1.8,3.8h3.6L337.8,124.4z"/>
			<path class="st0" d="M354.5,121.9c1.6,0,2.9,0.5,4,1.6s1.6,2.4,1.6,3.9c0,1.5-0.5,2.8-1.6,3.9s-2.4,1.6-3.9,1.6
				c-1.6,0-2.9-0.5-3.9-1.6c-1.1-1.1-1.6-2.3-1.6-3.9c0-1,0.2-1.9,0.7-2.8s1.1-1.5,2-2C352.6,122.1,353.5,121.9,354.5,121.9z
				 M354.5,122.9c-0.8,0-1.5,0.2-2.2,0.6s-1.2,0.9-1.6,1.6s-0.6,1.4-0.6,2.3c0,1.2,0.4,2.3,1.3,3.1c0.9,0.9,1.9,1.3,3.1,1.3
				c0.8,0,1.6-0.2,2.3-0.6c0.7-0.4,1.2-0.9,1.6-1.6c0.4-0.7,0.6-1.4,0.6-2.3c0-0.8-0.2-1.6-0.6-2.3c-0.4-0.7-0.9-1.2-1.6-1.6
				C356.1,123.1,355.3,122.9,354.5,122.9z"/>
		</g>
	</g>
</g>
</svg>
