<?xml version="1.0" encoding="utf-8"?>
<!-- Generator: Adobe Illustrator 22.0.1, SVG Export Plug-In . SVG Version: 6.00 Build 0)  -->
<svg version="1.1" id="Camada_1" xmlns="http://www.w3.org/2000/svg" xmlns:xlink="http://www.w3.org/1999/xlink" x="0px" y="0px"
	 viewBox="0 0 467.7 155.9" style="enable-background:new 0 0 467.7 155.9;" xml:space="preserve">
<style type="text/css">
	.st0{fill:#792181;}
</style>
<g>
	<g>
		<path class="st0" d="M338.9,46C321.3,46,307,60.2,307,77.9c0,17.6,14.3,31.9,31.9,31.9c17.6,0,31.9-14.3,31.9-31.9
			C370.8,60.2,356.5,46,338.9,46z M338.9,100.9c-12.7,0-23.1-10.3-23.1-23.1s10.3-23.1,23.1-23.1c12.7,0,23.1,10.3,23.1,23.1
			S351.7,100.9,338.9,100.9z"/>
	</g>
	<path class="st0" d="M145.7,61.7c3.3,3.3,5.4,7.4,6.3,11.7l-45,0c0.9-4.3,2.9-8.3,6.3-11.7C122.2,52.8,136.7,52.8,145.7,61.7
		 M158.3,91.6l-10.5,0c-0.7,0.9-1.4,1.7-2.2,2.5c-9,9-23.5,9-32.4,0c-3.3-3.3-5.4-7.4-6.3-11.7l54.1,0c1.4-9.6-1.6-19.7-9-27.1
		c-12.5-12.5-32.7-12.5-45.2,0c-12.5,12.5-12.5,32.7,0,45.2c12.5,12.5,32.7,12.5,45.2,0C154.7,97.9,156.8,94.9,158.3,91.6"/>
	<path class="st0" d="M271.1,61.7c3.3,3.3,5.4,7.4,6.3,11.7l-45,0c0.9-4.3,2.9-8.3,6.3-11.7C247.6,52.8,262.2,52.8,271.1,61.7
		 M283.8,91.6l-10.5,0c-0.7,0.9-1.4,1.7-2.2,2.5c-9,9-23.5,9-32.4,0c-3.3-3.3-5.4-7.4-6.3-11.7l54.1,0c1.4-9.6-1.6-19.7-9-27.1
		c-12.5-12.5-32.7-12.5-45.2,0c-12.5,12.5-12.5,32.7,0,45.2c12.5,12.5,32.7,12.5,45.2,0C280.2,97.9,282.3,94.9,283.8,91.6"/>
	<path class="st0" d="M88.3,22.1h-8.5v34.1C74,49.9,65.7,46,56.5,46c-17.6,0-31.9,14.3-31.9,31.9s14.3,31.9,31.9,31.9
		s31.9-14.3,31.9-31.9C88.3,77.2,88.3,22.1,88.3,22.1z M56.5,100.9c-12.7,0-23.1-10.3-23.1-23.1c0-12.7,10.3-23.1,23.1-23.1
		c12.7,0,23.1,10.3,23.1,23.1C79.5,90.6,69.2,100.9,56.5,100.9z"/>
	<rect x="292.8" y="22.1" class="st0" width="8.4" height="87.8"/>
	<path class="st0" d="M411.2,46.1c-17.6,0-31.9,14.3-31.9,31.9c0,0.7,0,55.7,0,55.7h8.5V99.7c5.8,6.3,14.1,10.2,23.4,10.2
		c17.6,0,31.9-14.3,31.9-31.9S428.9,46.1,411.2,46.1z M411.2,101.1c-12.7,0-23.1-10.3-23.1-23.1c0-12.7,10.3-23.1,23.1-23.1
		c12.7,0,23.1,10.3,23.1,23.1C434.3,90.8,424,101.1,411.2,101.1z"/>
	<g>
		<polygon class="st0" points="192.2,94 171.3,46 160.7,46 188.2,109 196.2,109 223.6,46 213.1,46 		"/>
	</g>
</g>
</svg>
